<svg xmlns="http://www.w3.org/2000/svg" viewBox="8 8 48 50" role="img" aria-label="Creative Design and Branding">
  <line x1="12" y1="12" x2="52" y2="12" stroke="#FF3049" stroke-width="2.7" stroke-linecap="round"/>
  <rect x="11.5" y="9.5" width="4.5" height="4.5" fill="none" stroke="#FF3049" stroke-width="2"/>
  <rect x="30" y="9.5" width="4.5" height="4.5" fill="none" stroke="#FF3049" stroke-width="2"/>
  <rect x="48.5" y="9.5" width="4.5" height="4.5" fill="none" stroke="#FF3049" stroke-width="2"/>
  <line x1="32" y1="12" x2="32" y2="24" stroke="#FF3049" stroke-width="2.7" stroke-linecap="round"/>
  <path d="M32 24 C22 24 12 30 10 38" fill="none" stroke="#FF3049" stroke-width="2.7" stroke-linecap="round"/>
  <path d="M32 24 C42 24 52 30 54 38" fill="none" stroke="#FF3049" stroke-width="2.7" stroke-linecap="round"/>
  <rect x="9.5" y="36.5" width="4.5" height="4.5" fill="none" stroke="#FF3049" stroke-width="2"/>
  <rect x="50" y="36.5" width="4.5" height="4.5" fill="none" stroke="#FF3049" stroke-width="2"/>
  <path d="M32 28 L26 48 L32 56 L38 48 Z" fill="#FFFFFF" stroke="#FF3049" stroke-width="2" stroke-linejoin="round"/>
  <line x1="32" y1="28" x2="32" y2="40" stroke="#FF3049" stroke-width="2" stroke-linecap="round"/>
  <circle cx="32" cy="40" r="2.2" fill="none" stroke="#FF3049" stroke-width="1.8"/>
  <rect x="26" y="52" width="12" height="4" rx="1" fill="#FFFFFF" stroke="#FF3049" stroke-width="2" stroke-linejoin="round"/>
</svg>
