<svg xmlns="http://www.w3.org/2000/svg" viewBox="2 0 60 56" role="img" aria-label="E-Commerce Solutions">
  <path d="M4 24 L4 18 L10 14 L50 14 L56 22" fill="none" stroke="#FFFFFF" stroke-width="2.7" stroke-linecap="round" stroke-linejoin="round"/>
  <path d="M12 22 L16 48 L48 48 L52 22 Z" fill="none" stroke="#FFFFFF" stroke-width="2.7" stroke-linejoin="round"/>
  <line x1="24" y1="22" x2="22" y2="48" stroke="#FFFFFF" stroke-width="2.7" stroke-linecap="round"/>
  <line x1="40" y1="22" x2="42" y2="48" stroke="#FFFFFF" stroke-width="2.7" stroke-linecap="round"/>
  <line x1="14" y1="35" x2="50" y2="35" stroke="#FFFFFF" stroke-width="2.7" stroke-linecap="round"/>
  <line x1="14" y1="48" x2="50" y2="48" stroke="#FFFFFF" stroke-width="2.7" stroke-linecap="round"/>
  <circle cx="20" cy="52" r="2.5" fill="none" stroke="#FFFFFF" stroke-width="2.7"/>
  <circle cx="44" cy="52" r="2.5" fill="none" stroke="#FFFFFF" stroke-width="2.7"/>
  <path d="M14 22 A18 18 0 0 1 50 22" fill="none" stroke="#FF3049" stroke-width="2.7" stroke-linecap="round"/>
  <line x1="32" y1="4" x2="32" y2="22" stroke="#FF3049" stroke-width="2.7" stroke-linecap="round"/>
  <path d="M18 16 C32 20 46 16 46 16" fill="none" stroke="#FF3049" stroke-width="2.7" stroke-linecap="round"/>
  <path d="M20 10 C32 12 44 10 44 10" fill="none" stroke="#FF3049" stroke-width="2.7" stroke-linecap="round"/>
</svg>
