<svg xmlns="http://www.w3.org/2000/svg" viewBox="0 2 62 44" role="img" aria-label="Digital Marketing">
  <path d="M6 39 L6 29 L19 20 L19 28 L6 39 Z" fill="none" stroke="#FFFFFF" stroke-width="2.7" stroke-linejoin="round" stroke-linecap="round"/>
  <path d="M19 20 L33 10 L36 21 L19 28 Z" fill="none" stroke="#FFFFFF" stroke-width="2.7" stroke-linejoin="round" stroke-linecap="round"/>
  <path d="M33 9.5 Q37.5 10 38 16.5 Q38.5 22 35 22.5" fill="none" stroke="#FFFFFF" stroke-width="2.7" stroke-linecap="round" stroke-linejoin="round"/>
  <path d="M4 37 L4 47 Q4 49 6 49 L11 49 Q13 49 13 47 L13 39" fill="none" stroke="#FFFFFF" stroke-width="2.7" stroke-linejoin="round" stroke-linecap="round"/>
  <circle cx="8" cy="31" r="2.6" fill="#FF3049"/>
  <line x1="35" y1="16" x2="42" y2="15" stroke="#FF3049" stroke-width="2.2" stroke-linecap="round" stroke-dasharray="2.5 2.5"/>
  <line x1="35" y1="16" x2="43" y2="10" stroke="#FF3049" stroke-width="2.2" stroke-linecap="round" stroke-dasharray="2.5 2.5"/>
  <line x1="35" y1="16" x2="42" y2="22" stroke="#FF3049" stroke-width="2.2" stroke-linecap="round" stroke-dasharray="2.5 2.5"/>
  <line x1="35" y1="16" x2="44" y2="8" stroke="#FF3049" stroke-width="1.8" stroke-linecap="round" stroke-dasharray="2 2"/>
  <line x1="35" y1="16" x2="52" y2="13" stroke="#FF3049" stroke-width="1.8" stroke-linecap="round" stroke-dasharray="2 2"/>
  <line x1="35" y1="16" x2="54" y2="23" stroke="#FF3049" stroke-width="1.8" stroke-linecap="round" stroke-dasharray="2 2"/>
  <line x1="35" y1="16" x2="51" y2="33" stroke="#FF3049" stroke-width="1.8" stroke-linecap="round" stroke-dasharray="2 2"/>
  <circle cx="44" cy="8" r="4.3" fill="none" stroke="#FF3049" stroke-width="2.7"/>
  <polygon points="43,6.5 46.5,8 43,9.5" fill="#FFFFFF"/>
  <circle cx="52" cy="13" r="4.3" fill="none" stroke="#FFFFFF" stroke-width="2.7"/>
  <text x="52" y="15.2" text-anchor="middle" font-family="Arial, Helvetica, sans-serif" font-size="7" font-weight="700" fill="#FFFFFF">f</text>
  <rect x="49.5" y="19.5" width="9" height="9" rx="2.2" fill="none" stroke="#FF3049" stroke-width="2.7"/>
  <circle cx="54" cy="24" r="2.2" fill="none" stroke="#FFFFFF" stroke-width="2"/>
  <circle cx="56.2" cy="21.8" r="0.7" fill="#FFFFFF"/>
  <circle cx="51" cy="33" r="4.3" fill="none" stroke="#FFFFFF" stroke-width="2.7"/>
  <text x="51" y="35.2" text-anchor="middle" font-family="Arial, Helvetica, sans-serif" font-size="6" font-weight="700" fill="#FFFFFF">in</text>
</svg>
