<svg width="367" height="352" viewBox="0 0 367 352" fill="none" xmlns="http://www.w3.org/2000/svg">
<g filter="url(#filter0_d_91_1894)">
<path d="M188 127.385L168.887 96.9367C168.521 96.3538 167.881 96 167.193 96H92.5902C91.2836 96 90.0594 96.6382 89.3111 97.7093L42.6696 164.476C41.6747 165.9 41.7129 167.804 42.7642 169.187L89.3046 230.42C90.061 231.416 91.2392 232 92.4892 232H163.986C164.623 232 165.223 231.696 165.599 231.182L188 200.615H106.531C105.254 200.615 104.055 200.006 103.302 198.976L80.2088 167.384C79.1892 165.989 79.1804 164.097 80.1872 162.693L104.303 129.054C105.054 128.006 106.265 127.385 107.554 127.385H188Z" fill="#DEDEDE"/>
</g>
<path d="M188 191.108V200.615H154.5V198V191.108C154.5 190.003 155.395 189.108 156.5 189.108H186C187.105 189.108 188 190.003 188 191.108Z" fill="#DEDEDE"/>
<g filter="url(#filter1_d_91_1894)">
<path d="M239.121 246H199.755L273.006 146H125.973C125.154 146 124.683 146.931 125.167 147.591L145.401 175.183C145.777 175.696 146.376 176 147.013 176H148H178.079L212.711 176.5L139.406 276H254.026C254.641 276 255.221 275.717 255.601 275.233L278.5 246H239.121Z" fill="url(#paint0_linear_91_1894)"/>
</g>
<g filter="url(#filter2_d_91_1894)">
<path d="M145.717 176.719H150.507L147.719 172H143L145.717 176.719Z" fill="#C1200D"/>
</g>
<path d="M155.67 175.311H160.46L157.672 170.593H152.953L155.67 175.311Z" fill="#C1200D"/>
<path d="M165.107 175.311H169.898L167.109 170.593H162.391L165.107 175.311Z" fill="#C1200D"/>
<path d="M174.545 175.311H179.335L176.547 170.593H171.828L174.545 175.311Z" fill="#C1200D"/>
<path d="M183.978 175.311H188.769L185.98 170.593H181.262L183.978 175.311Z" fill="#C1200D"/>
<path d="M193.408 175.311H198.198L195.41 170.593H190.691L193.408 175.311Z" fill="#C1200D"/>
<path d="M202.85 175.311H207.64L204.851 170.593H200.133L202.85 175.311Z" fill="#C1200D"/>
<path d="M148.232 170.592H153.023L150.234 165.874H145.516L148.232 170.592Z" fill="#C1200D"/>
<path d="M140.795 165.874H145.585L142.797 161.156H138.078L140.795 165.874Z" fill="#C1200D"/>
<path d="M157.67 170.592H162.46L159.672 165.874H154.953L157.67 170.592Z" fill="#C1200D"/>
<path d="M167.111 170.592H171.901L169.113 165.874H164.395L167.111 170.592Z" fill="#C1200D"/>
<path d="M176.541 170.592H181.331L178.543 165.874H173.824L176.541 170.592Z" fill="#C1200D"/>
<path d="M185.975 170.592H190.765L187.976 165.874H183.258L185.975 170.592Z" fill="#C1200D"/>
<path d="M195.42 170.592H200.21L197.422 165.874H192.703L195.42 170.592Z" fill="#C1200D"/>
<path d="M150.228 165.874H155.019L152.23 161.156H147.512L150.228 165.874Z" fill="#C1200D"/>
<path d="M159.666 165.874H164.456L161.668 161.156H156.949L159.666 165.874Z" fill="#C1200D"/>
<path d="M169.107 165.874H173.898L171.109 161.156H166.391L169.107 165.874Z" fill="#C1200D"/>
<path d="M178.537 165.874H183.327L180.539 161.156H175.82L178.537 165.874Z" fill="#C1200D"/>
<path d="M187.975 165.874H192.765L189.976 161.156H185.258L187.975 165.874Z" fill="#C1200D"/>
<path d="M197.42 165.874H202.21L199.422 161.156H194.703L197.42 165.874Z" fill="#C1200D"/>
<path d="M142.795 161.156H147.585L144.797 156.437H140.078L142.795 161.156Z" fill="#C1200D"/>
<path d="M152.232 161.156H157.023L154.234 156.437H149.516L152.232 161.156Z" fill="#C1200D"/>
<path d="M171.103 161.156H175.894L173.105 156.437H168.387L171.103 161.156Z" fill="#C1200D"/>
<path d="M180.541 161.156H185.331L182.543 156.437H177.824L180.541 161.156Z" fill="#C1200D"/>
<path d="M189.978 161.156H194.769L191.98 156.437H187.262L189.978 161.156Z" fill="#C1200D"/>
<path d="M199.416 161.156H204.206L201.418 156.437H196.699L199.416 161.156Z" fill="#C1200D"/>
<path d="M144.803 156.437H149.593L146.805 151.719H142.086L144.803 156.437Z" fill="#C1200D"/>
<path d="M135.217 156.437H140.007L137.219 151.719H132.5L135.217 156.437Z" fill="#C1200D"/>
<path d="M137.365 151.719H142.155L139.367 147H134.648L137.365 151.719Z" fill="#C1200D"/>
<path d="M146.803 151.719H151.593L148.805 147H144.086L146.803 151.719Z" fill="#C1200D"/>
<path d="M156.232 151.719H161.023L158.234 147H153.516L156.232 151.719Z" fill="#C1200D"/>
<path d="M165.678 151.719H170.468L167.68 147H162.961L165.678 151.719Z" fill="#C1200D"/>
<path d="M175.119 151.719H179.909L177.121 147H172.402L175.119 151.719Z" fill="#C1200D"/>
<path d="M184.553 151.719H189.343L186.555 147H181.836L184.553 151.719Z" fill="#C1200D"/>
<path d="M193.99 151.719H198.78L195.992 147H191.273L193.99 151.719Z" fill="#C1200D"/>
<path d="M154.236 156.437H159.026L156.238 151.719H151.52L154.236 156.437Z" fill="#C1200D"/>
<path d="M163.674 156.437H168.464L165.676 151.719H160.957L163.674 156.437Z" fill="#C1200D"/>
<path d="M173.111 156.437H177.901L175.113 151.719H170.395L173.111 156.437Z" fill="#C1200D"/>
<path d="M182.553 156.437H187.343L184.555 151.719H179.836L182.553 156.437Z" fill="#C1200D"/>
<path d="M191.994 156.437H196.784L193.996 151.719H189.277L191.994 156.437Z" fill="#C1200D"/>
<path d="M201.789 155.866H205.708L203.427 152.005H199.566L201.789 155.866Z" fill="#C1200D"/>
<path d="M203.789 151.147H207.708L205.427 147.287H201.566L203.789 151.147Z" fill="#C1200D"/>
<path d="M205.219 170.164H209.138L206.857 166.304H202.996L205.219 170.164Z" fill="#C1200D"/>
<path d="M207.215 165.445H211.134L208.853 161.585H204.992L207.215 165.445Z" fill="#C1200D"/>
<path d="M209.219 160.727H213.138L210.857 156.867H206.996L209.219 160.727Z" fill="#C1200D"/>
<path d="M211.223 156.009H215.142L212.861 152.148H209L211.223 156.009Z" fill="#C1200D"/>
<path d="M213.363 151.147H217.283L215.001 147.287H211.141L213.363 151.147Z" fill="#C1200D"/>
<path d="M212.869 174.453H215.918L214.143 171.45H211.141L212.869 174.453Z" fill="#C1200D"/>
<path d="M214.885 169.734H217.933L216.159 166.731H213.156L214.885 169.734Z" fill="#C1200D"/>
<path d="M216.881 165.016H219.929L218.155 162.013H215.152L216.881 165.016Z" fill="#C1200D"/>
<path d="M218.919 160.012H221.532L220.011 157.438H217.438L218.919 160.012Z" fill="#C1200D"/>
<path d="M222.497 174.167H225.11L223.589 171.593H221.016L222.497 174.167Z" fill="#C1200D"/>
<path d="M224.56 169.449H227.027L225.591 167.018H223.16L224.56 169.449Z" fill="#C1200D"/>
<path d="M226.594 164.444H228.626L227.443 162.443H225.441L226.594 164.444Z" fill="#C1200D"/>
<path d="M228.598 159.726H230.63L229.447 157.724H227.445L228.598 159.726Z" fill="#C1200D"/>
<path d="M230.543 155.151H232.721L231.453 153.006H229.309L230.543 155.151Z" fill="#C1200D"/>
<path d="M232.102 151.147H234.279L233.012 149.002H230.867L232.102 151.147Z" fill="#C1200D"/>
<path d="M232.144 173.739H233.886L232.872 172.023H231.156L232.144 173.739Z" fill="#C1200D"/>
<path d="M234.077 168.877H235.674L234.745 167.305H233.172L234.077 168.877Z" fill="#C1200D"/>
<path d="M235.351 164.444H236.948L236.018 162.872H234.445L235.351 164.444Z" fill="#C1200D"/>
<path d="M236.64 160.727H238.237L237.307 159.154H235.734L236.64 160.727Z" fill="#C1200D"/>
<path d="M220.982 155.294H223.449L222.013 152.863H219.582L220.982 155.294Z" fill="#C1200D"/>
<path d="M222.833 150.718H225.301L223.864 148.287H221.434L222.833 150.718Z" fill="#C1200D"/>
<path d="M161.662 161.156H166.452L163.664 156.437H158.945L161.662 161.156Z" fill="#C1200D"/>
<g filter="url(#filter3_d_91_1894)">
<path d="M256.338 275.103H251.584L254.351 270.419H259.035L256.338 275.103Z" fill="#BABACE"/>
</g>
<path d="M246.967 275.103H242.213L244.98 270.419H249.664L246.967 275.103Z" fill="#BABACE"/>
<path d="M237.6 275.103H232.845L235.613 270.419H240.297L237.6 275.103Z" fill="#BABACE"/>
<path d="M228.245 275.103H223.49L226.258 270.419H230.941L228.245 275.103Z" fill="#BABACE"/>
<path d="M218.866 275.103H214.111L216.879 270.419H221.562L218.866 275.103Z" fill="#BABACE"/>
<path d="M209.499 275.103H204.744L207.512 270.419H212.195L209.499 275.103Z" fill="#BABACE"/>
<path d="M200.127 275.103H195.373L198.14 270.419H202.824L200.127 275.103Z" fill="#BABACE"/>
<path d="M254.35 270.42H249.595L252.363 265.736H257.047L254.35 270.42Z" fill="#BABACE"/>
<path d="M261.729 265.735H256.974L259.742 261.051H264.426L261.729 265.735Z" fill="#BABACE"/>
<g filter="url(#filter4_d_91_1894)">
<path d="M263.756 270.684L259 270.5L261.769 266H266.453L263.756 270.684Z" fill="#BABACE"/>
</g>
<g filter="url(#filter5_d_91_1894)">
<path d="M271 266H266.5L268.5 262H273L271 266Z" fill="#BABACE"/>
</g>
<g filter="url(#filter6_d_91_1894)">
<path d="M276.5 257H272L274 253H278.5L276.5 257Z" fill="#BABACE"/>
</g>
<path d="M271.5 273H267L269 269H273.5L271.5 273Z" fill="#BABACE"/>
<g filter="url(#filter7_d_91_1894)">
<path d="M258.5 278.5H255L256.5 275H260L258.5 278.5Z" fill="#BABACE"/>
</g>
<path d="M282.462 252H279L280.538 249H284L282.462 252Z" fill="#BABACE"/>
<path d="M278.462 261H275L276.538 258H280L278.462 261Z" fill="#BABACE"/>
<path d="M286.077 249H284L284.923 247H287L286.077 249Z" fill="#BABACE"/>
<path d="M244.975 270.42H240.22L242.988 265.736H247.672L244.975 270.42Z" fill="#BABACE"/>
<path d="M235.616 270.42H230.861L233.629 265.736H238.312L235.616 270.42Z" fill="#BABACE"/>
<path d="M226.252 270.42H221.498L224.265 265.736H228.949L226.252 270.42Z" fill="#BABACE"/>
<path d="M216.881 270.42H212.127L214.894 265.736H219.578L216.881 270.42Z" fill="#BABACE"/>
<path d="M207.518 270.42H202.763L205.531 265.736H210.215L207.518 270.42Z" fill="#BABACE"/>
<path d="M252.37 265.735H247.615L250.383 261.051H255.066L252.37 265.735Z" fill="#BABACE"/>
<path d="M243.006 265.735H238.252L241.019 261.051H245.703L243.006 265.735Z" fill="#BABACE"/>
<path d="M233.62 265.735H228.865L231.633 261.051H236.316L233.62 265.735Z" fill="#BABACE"/>
<path d="M224.264 265.735H219.509L222.277 261.051H226.961L224.264 265.735Z" fill="#BABACE"/>
<path d="M214.893 265.735H210.138L212.906 261.051H217.59L214.893 265.735Z" fill="#BABACE"/>
<path d="M205.526 265.735H200.771L203.539 261.051H208.223L205.526 265.735Z" fill="#BABACE"/>
<path d="M259.749 261.052H254.994L257.762 256.368H262.445L259.749 261.052Z" fill="#BABACE"/>
<path d="M250.377 261.052H245.623L248.39 256.368H253.074L250.377 261.052Z" fill="#BABACE"/>
<path d="M231.647 261.052H226.892L229.66 256.368H234.344L231.647 261.052Z" fill="#BABACE"/>
<path d="M222.276 261.052H217.521L220.289 256.368H224.973L222.276 261.052Z" fill="#BABACE"/>
<path d="M212.913 261.052H208.158L210.926 256.368H215.609L212.913 261.052Z" fill="#BABACE"/>
<path d="M203.534 261.052H198.779L201.547 256.368H206.23L203.534 261.052Z" fill="#BABACE"/>
<path d="M257.764 256.368H253.009L255.777 251.684H260.461L257.764 256.368Z" fill="#BABACE"/>
<path d="M267.264 256.368H262.509L265.277 251.684H269.961L267.264 256.368Z" fill="#BABACE"/>
<path d="M265.139 251.684H260.384L263.152 247H267.836L265.139 251.684Z" fill="#BABACE"/>
<path d="M255.76 251.684H251.006L253.773 247H258.457L255.76 251.684Z" fill="#BABACE"/>
<path d="M246.401 251.684H241.646L244.414 247H249.098L246.401 251.684Z" fill="#BABACE"/>
<path d="M237.022 251.684H232.267L235.035 247H239.719L237.022 251.684Z" fill="#BABACE"/>
<path d="M227.667 251.684H222.912L225.679 247H230.363L227.667 251.684Z" fill="#BABACE"/>
<path d="M218.295 251.684H213.541L216.308 247H220.992L218.295 251.684Z" fill="#BABACE"/>
<path d="M208.924 251.684H204.17L206.937 247H211.621L208.924 251.684Z" fill="#BABACE"/>
<path d="M248.381 256.368H243.627L246.394 251.684H251.078L248.381 256.368Z" fill="#BABACE"/>
<path d="M239.014 256.368H234.259L237.027 251.684H241.711L239.014 256.368Z" fill="#BABACE"/>
<path d="M229.651 256.368H224.896L227.664 251.684H232.348L229.651 256.368Z" fill="#BABACE"/>
<path d="M220.284 256.368H215.529L218.297 251.684H222.98L220.284 256.368Z" fill="#BABACE"/>
<path d="M210.905 256.368H206.15L208.918 251.684H213.602L210.905 256.368Z" fill="#BABACE"/>
<path d="M201.176 255.801H197.286L199.551 251.969H203.383L201.176 255.801Z" fill="#BABACE"/>
<path d="M199.2 251.116H195.309L197.574 247.284H201.406L199.2 251.116Z" fill="#BABACE"/>
<path d="M197.794 269.994H193.903L196.168 266.162H200L197.794 269.994Z" fill="#BABACE"/>
<path d="M195.801 265.31H191.911L194.176 261.478H198.008L195.801 265.31Z" fill="#BABACE"/>
<path d="M193.809 260.626H189.919L192.183 256.794H196.016L193.809 260.626Z" fill="#BABACE"/>
<path d="M191.829 255.943H187.938L190.203 252.11H194.035L191.829 255.943Z" fill="#BABACE"/>
<path d="M189.692 251.116H185.802L188.066 247.284H191.898L189.692 251.116Z" fill="#BABACE"/>
<path d="M190.182 274.252H187.156L188.918 271.271H191.898L190.182 274.252Z" fill="#BABACE"/>
<path d="M188.198 269.567H185.172L186.933 266.587H189.914L188.198 269.567Z" fill="#BABACE"/>
<path d="M186.206 264.884H183.18L184.941 261.903H187.922L186.206 264.884Z" fill="#BABACE"/>
<path d="M184.185 259.917H181.592L183.101 257.362H185.656L184.185 259.917Z" fill="#BABACE"/>
<path d="M180.627 273.968H178.033L179.543 271.413H182.098L180.627 273.968Z" fill="#BABACE"/>
<path d="M178.579 269.284H176.13L177.556 266.871H179.969L178.579 269.284Z" fill="#BABACE"/>
<path d="M176.567 264.317H174.55L175.724 262.33H177.711L176.567 264.317Z" fill="#BABACE"/>
<path d="M174.571 259.633H172.554L173.728 257.646H175.715L174.571 259.633Z" fill="#BABACE"/>
<path d="M172.645 255.091H170.484L171.742 252.962H173.871L172.645 255.091Z" fill="#BABACE"/>
<path d="M171.098 251.116H168.937L170.195 248.987H172.324L171.098 251.116Z" fill="#BABACE"/>
<path d="M171.051 273.542H169.322L170.328 271.839H172.031L171.051 273.542Z" fill="#BABACE"/>
<path d="M169.144 268.717H167.559L168.482 267.155H170.043L169.144 268.717Z" fill="#BABACE"/>
<path d="M167.867 264.317H166.282L167.204 262.756H168.766L167.867 264.317Z" fill="#BABACE"/>
<path d="M166.585 260.626H165L165.923 259.065H167.484L166.585 260.626Z" fill="#BABACE"/>
<path d="M182.13 255.233H179.681L181.107 252.82H183.52L182.13 255.233Z" fill="#BABACE"/>
<path d="M180.298 250.691H177.849L179.275 248.278H181.688L180.298 250.691Z" fill="#BABACE"/>
<path d="M241.014 261.052H236.259L239.027 256.368H243.711L241.014 261.052Z" fill="#BABACE"/>
<g filter="url(#filter8_d_91_1894)">
<path d="M129.105 146H124L126.971 151H132L129.105 146Z" fill="#C1200D"/>
</g>
<g filter="url(#filter9_d_91_1894)">
<path d="M273.895 246H279L276.029 251H271L273.895 246Z" fill="#BABACE"/>
</g>
<g filter="url(#filter10_d_91_1894)">
<path d="M267.5 257H272L269.5 261H265L267.5 257Z" fill="#BABACE"/>
</g>
<path d="M280.5 242H285.5L283 246H278.5L280.5 242Z" fill="#BABACE"/>
<g filter="url(#filter11_d_91_1894)">
<path d="M135.105 156H130L132.971 161H138L135.105 156Z" fill="#C1200D"/>
</g>
<path d="M121.829 142H118L120.229 146H124L121.829 142Z" fill="#C1200D"/>
<g filter="url(#filter12_d_91_1894)">
<path d="M127.829 152H124L126.229 156H130L127.829 152Z" fill="#C1200D"/>
</g>
<path d="M125.19 157H122L123.857 160H127L125.19 157Z" fill="#C1200D"/>
<path d="M121.19 150H118L119.857 153H123L121.19 150Z" fill="#C1200D"/>
<path d="M132.105 161H127L129.971 166H135L132.105 161Z" fill="#C1200D"/>
<path d="M138.105 172H133L135.971 177H141L138.105 172Z" fill="#C1200D"/>
<path d="M130.19 166H127L128.857 169H132L130.19 166Z" fill="#C1200D"/>
<path d="M130.19 143H127L128.857 146H132L130.19 143Z" fill="#C1200D"/>
<g filter="url(#filter13_d_91_1894)">
<path d="M140.105 166H135L137.971 171H143L140.105 166Z" fill="#C1200D"/>
</g>
<defs>
<filter id="filter0_d_91_1894" x="37.9492" y="96" width="154.051" height="144" filterUnits="userSpaceOnUse" color-interpolation-filters="sRGB">
<feFlood flood-opacity="0" result="BackgroundImageFix"/>
<feColorMatrix in="SourceAlpha" type="matrix" values="0 0 0 0 0 0 0 0 0 0 0 0 0 0 0 0 0 0 127 0" result="hardAlpha"/>
<feOffset dy="4"/>
<feGaussianBlur stdDeviation="2"/>
<feComposite in2="hardAlpha" operator="out"/>
<feColorMatrix type="matrix" values="0 0 0 0 0 0 0 0 0 0 0 0 0 0 0 0 0 0 0.25 0"/>
<feBlend mode="normal" in2="BackgroundImageFix" result="effect1_dropShadow_91_1894"/>
<feBlend mode="normal" in="SourceGraphic" in2="effect1_dropShadow_91_1894" result="shape"/>
</filter>
<filter id="filter1_d_91_1894" x="120.973" y="146" width="161.527" height="138" filterUnits="userSpaceOnUse" color-interpolation-filters="sRGB">
<feFlood flood-opacity="0" result="BackgroundImageFix"/>
<feColorMatrix in="SourceAlpha" type="matrix" values="0 0 0 0 0 0 0 0 0 0 0 0 0 0 0 0 0 0 127 0" result="hardAlpha"/>
<feOffset dy="4"/>
<feGaussianBlur stdDeviation="2"/>
<feComposite in2="hardAlpha" operator="out"/>
<feColorMatrix type="matrix" values="0 0 0 0 0 0 0 0 0 0 0 0 0 0 0 0 0 0 0.25 0"/>
<feBlend mode="normal" in2="BackgroundImageFix" result="effect1_dropShadow_91_1894"/>
<feBlend mode="normal" in="SourceGraphic" in2="effect1_dropShadow_91_1894" result="shape"/>
</filter>
<filter id="filter2_d_91_1894" x="139" y="170" width="13.5078" height="10.7185" filterUnits="userSpaceOnUse" color-interpolation-filters="sRGB">
<feFlood flood-opacity="0" result="BackgroundImageFix"/>
<feColorMatrix in="SourceAlpha" type="matrix" values="0 0 0 0 0 0 0 0 0 0 0 0 0 0 0 0 0 0 127 0" result="hardAlpha"/>
<feOffset dx="-1" dy="1"/>
<feGaussianBlur stdDeviation="1.5"/>
<feComposite in2="hardAlpha" operator="out"/>
<feColorMatrix type="matrix" values="0 0 0 0 0 0 0 0 0 0.048718 0 0 0 0 0.182692 0 0 0 1 0"/>
<feBlend mode="normal" in2="BackgroundImageFix" result="effect1_dropShadow_91_1894"/>
<feBlend mode="normal" in="SourceGraphic" in2="effect1_dropShadow_91_1894" result="shape"/>
</filter>
<filter id="filter3_d_91_1894" x="249.582" y="269.419" width="11.4531" height="8.68384" filterUnits="userSpaceOnUse" color-interpolation-filters="sRGB">
<feFlood flood-opacity="0" result="BackgroundImageFix"/>
<feColorMatrix in="SourceAlpha" type="matrix" values="0 0 0 0 0 0 0 0 0 0 0 0 0 0 0 0 0 0 127 0" result="hardAlpha"/>
<feOffset dy="1"/>
<feGaussianBlur stdDeviation="1"/>
<feComposite in2="hardAlpha" operator="out"/>
<feColorMatrix type="matrix" values="0 0 0 0 0.756863 0 0 0 0 0.12549 0 0 0 0 0.0509804 0 0 0 1 0"/>
<feBlend mode="normal" in2="BackgroundImageFix" result="effect1_dropShadow_91_1894"/>
<feBlend mode="normal" in="SourceGraphic" in2="effect1_dropShadow_91_1894" result="shape"/>
</filter>
<filter id="filter4_d_91_1894" x="255" y="263" width="15.4531" height="12.6838" filterUnits="userSpaceOnUse" color-interpolation-filters="sRGB">
<feFlood flood-opacity="0" result="BackgroundImageFix"/>
<feColorMatrix in="SourceAlpha" type="matrix" values="0 0 0 0 0 0 0 0 0 0 0 0 0 0 0 0 0 0 127 0" result="hardAlpha"/>
<feOffset dy="1"/>
<feGaussianBlur stdDeviation="2"/>
<feComposite in2="hardAlpha" operator="out"/>
<feColorMatrix type="matrix" values="0 0 0 0 0.756863 0 0 0 0 0.12549 0 0 0 0 0.0509804 0 0 0 1 0"/>
<feBlend mode="normal" in2="BackgroundImageFix" result="effect1_dropShadow_91_1894"/>
<feBlend mode="normal" in="SourceGraphic" in2="effect1_dropShadow_91_1894" result="shape"/>
</filter>
<filter id="filter5_d_91_1894" x="262.5" y="257" width="14.5" height="12" filterUnits="userSpaceOnUse" color-interpolation-filters="sRGB">
<feFlood flood-opacity="0" result="BackgroundImageFix"/>
<feColorMatrix in="SourceAlpha" type="matrix" values="0 0 0 0 0 0 0 0 0 0 0 0 0 0 0 0 0 0 127 0" result="hardAlpha"/>
<feOffset dy="-1"/>
<feGaussianBlur stdDeviation="2"/>
<feComposite in2="hardAlpha" operator="out"/>
<feColorMatrix type="matrix" values="0 0 0 0 0.756863 0 0 0 0 0.12549 0 0 0 0 0.0509804 0 0 0 1 0"/>
<feBlend mode="normal" in2="BackgroundImageFix" result="effect1_dropShadow_91_1894"/>
<feBlend mode="normal" in="SourceGraphic" in2="effect1_dropShadow_91_1894" result="shape"/>
</filter>
<filter id="filter6_d_91_1894" x="268" y="251" width="14.5" height="12" filterUnits="userSpaceOnUse" color-interpolation-filters="sRGB">
<feFlood flood-opacity="0" result="BackgroundImageFix"/>
<feColorMatrix in="SourceAlpha" type="matrix" values="0 0 0 0 0 0 0 0 0 0 0 0 0 0 0 0 0 0 127 0" result="hardAlpha"/>
<feOffset dy="2"/>
<feGaussianBlur stdDeviation="2"/>
<feComposite in2="hardAlpha" operator="out"/>
<feColorMatrix type="matrix" values="0 0 0 0 0.756863 0 0 0 0 0.12549 0 0 0 0 0.0509804 0 0 0 1 0"/>
<feBlend mode="normal" in2="BackgroundImageFix" result="effect1_dropShadow_91_1894"/>
<feBlend mode="normal" in="SourceGraphic" in2="effect1_dropShadow_91_1894" result="shape"/>
</filter>
<filter id="filter7_d_91_1894" x="251" y="270" width="13" height="11.5" filterUnits="userSpaceOnUse" color-interpolation-filters="sRGB">
<feFlood flood-opacity="0" result="BackgroundImageFix"/>
<feColorMatrix in="SourceAlpha" type="matrix" values="0 0 0 0 0 0 0 0 0 0 0 0 0 0 0 0 0 0 127 0" result="hardAlpha"/>
<feOffset dy="-1"/>
<feGaussianBlur stdDeviation="2"/>
<feComposite in2="hardAlpha" operator="out"/>
<feColorMatrix type="matrix" values="0 0 0 0 0.756863 0 0 0 0 0.12549 0 0 0 0 0.0509804 0 0 0 1 0"/>
<feBlend mode="normal" in2="BackgroundImageFix" result="effect1_dropShadow_91_1894"/>
<feBlend mode="normal" in="SourceGraphic" in2="effect1_dropShadow_91_1894" result="shape"/>
</filter>
<filter id="filter8_d_91_1894" x="121" y="145" width="14" height="11" filterUnits="userSpaceOnUse" color-interpolation-filters="sRGB">
<feFlood flood-opacity="0" result="BackgroundImageFix"/>
<feColorMatrix in="SourceAlpha" type="matrix" values="0 0 0 0 0 0 0 0 0 0 0 0 0 0 0 0 0 0 127 0" result="hardAlpha"/>
<feOffset dy="2"/>
<feGaussianBlur stdDeviation="1.5"/>
<feComposite in2="hardAlpha" operator="out"/>
<feColorMatrix type="matrix" values="0 0 0 0 0 0 0 0 0 0.048718 0 0 0 0 0.182692 0 0 0 1 0"/>
<feBlend mode="normal" in2="BackgroundImageFix" result="effect1_dropShadow_91_1894"/>
<feBlend mode="normal" in="SourceGraphic" in2="effect1_dropShadow_91_1894" result="shape"/>
</filter>
<filter id="filter9_d_91_1894" x="267" y="244" width="16" height="13" filterUnits="userSpaceOnUse" color-interpolation-filters="sRGB">
<feFlood flood-opacity="0" result="BackgroundImageFix"/>
<feColorMatrix in="SourceAlpha" type="matrix" values="0 0 0 0 0 0 0 0 0 0 0 0 0 0 0 0 0 0 127 0" result="hardAlpha"/>
<feOffset dy="2"/>
<feGaussianBlur stdDeviation="2"/>
<feComposite in2="hardAlpha" operator="out"/>
<feColorMatrix type="matrix" values="0 0 0 0 0.756863 0 0 0 0 0.12549 0 0 0 0 0.0509804 0 0 0 1 0"/>
<feBlend mode="normal" in2="BackgroundImageFix" result="effect1_dropShadow_91_1894"/>
<feBlend mode="normal" in="SourceGraphic" in2="effect1_dropShadow_91_1894" result="shape"/>
</filter>
<filter id="filter10_d_91_1894" x="261" y="252" width="15" height="12" filterUnits="userSpaceOnUse" color-interpolation-filters="sRGB">
<feFlood flood-opacity="0" result="BackgroundImageFix"/>
<feColorMatrix in="SourceAlpha" type="matrix" values="0 0 0 0 0 0 0 0 0 0 0 0 0 0 0 0 0 0 127 0" result="hardAlpha"/>
<feOffset dy="-1"/>
<feGaussianBlur stdDeviation="2"/>
<feComposite in2="hardAlpha" operator="out"/>
<feColorMatrix type="matrix" values="0 0 0 0 0.756863 0 0 0 0 0.12549 0 0 0 0 0.0509804 0 0 0 1 0"/>
<feBlend mode="normal" in2="BackgroundImageFix" result="effect1_dropShadow_91_1894"/>
<feBlend mode="normal" in="SourceGraphic" in2="effect1_dropShadow_91_1894" result="shape"/>
</filter>
<filter id="filter11_d_91_1894" x="127" y="154" width="14" height="11" filterUnits="userSpaceOnUse" color-interpolation-filters="sRGB">
<feFlood flood-opacity="0" result="BackgroundImageFix"/>
<feColorMatrix in="SourceAlpha" type="matrix" values="0 0 0 0 0 0 0 0 0 0 0 0 0 0 0 0 0 0 127 0" result="hardAlpha"/>
<feOffset dy="1"/>
<feGaussianBlur stdDeviation="1.5"/>
<feComposite in2="hardAlpha" operator="out"/>
<feColorMatrix type="matrix" values="0 0 0 0 0 0 0 0 0 0.048718 0 0 0 0 0.182692 0 0 0 1 0"/>
<feBlend mode="normal" in2="BackgroundImageFix" result="effect1_dropShadow_91_1894"/>
<feBlend mode="normal" in="SourceGraphic" in2="effect1_dropShadow_91_1894" result="shape"/>
</filter>
<filter id="filter12_d_91_1894" x="121" y="150" width="12" height="10" filterUnits="userSpaceOnUse" color-interpolation-filters="sRGB">
<feFlood flood-opacity="0" result="BackgroundImageFix"/>
<feColorMatrix in="SourceAlpha" type="matrix" values="0 0 0 0 0 0 0 0 0 0 0 0 0 0 0 0 0 0 127 0" result="hardAlpha"/>
<feOffset dy="1"/>
<feGaussianBlur stdDeviation="1.5"/>
<feComposite in2="hardAlpha" operator="out"/>
<feColorMatrix type="matrix" values="0 0 0 0 0 0 0 0 0 0.048718 0 0 0 0 0.182692 0 0 0 1 0"/>
<feBlend mode="normal" in2="BackgroundImageFix" result="effect1_dropShadow_91_1894"/>
<feBlend mode="normal" in="SourceGraphic" in2="effect1_dropShadow_91_1894" result="shape"/>
</filter>
<filter id="filter13_d_91_1894" x="132" y="164" width="14" height="11" filterUnits="userSpaceOnUse" color-interpolation-filters="sRGB">
<feFlood flood-opacity="0" result="BackgroundImageFix"/>
<feColorMatrix in="SourceAlpha" type="matrix" values="0 0 0 0 0 0 0 0 0 0 0 0 0 0 0 0 0 0 127 0" result="hardAlpha"/>
<feOffset dy="1"/>
<feGaussianBlur stdDeviation="1.5"/>
<feComposite in2="hardAlpha" operator="out"/>
<feColorMatrix type="matrix" values="0 0 0 0 0 0 0 0 0 0.048718 0 0 0 0 0.182692 0 0 0 1 0"/>
<feBlend mode="normal" in2="BackgroundImageFix" result="effect1_dropShadow_91_1894"/>
<feBlend mode="normal" in="SourceGraphic" in2="effect1_dropShadow_91_1894" result="shape"/>
</filter>
<linearGradient id="paint0_linear_91_1894" x1="133.266" y1="154.699" x2="253.202" y2="252.437" gradientUnits="userSpaceOnUse">
<stop offset="0.310377" stop-color="#000C2F"/>
<stop offset="0.427143" stop-color="#AC0E0E"/>
<stop offset="0.495192" stop-color="#D03421"/>
<stop offset="0.676477" stop-color="#C1200D"/>
</linearGradient>
</defs>
</svg>
